<svg width="25" height="25" viewBox="0 0 25 25" fill="none" xmlns="http://www.w3.org/2000/svg">
<g id="Group_duotone_line">
<circle id="Ellipse 46" cx="12.5" cy="8.33325" r="2.625" stroke="#344BFD" stroke-linecap="round"/>
<path id="Ellipse 47" d="M14.3237 6.76034C14.5317 6.39993 14.842 6.10931 15.2153 5.92525C15.5885 5.74118 16.008 5.67193 16.4206 5.72625C16.8332 5.78057 17.2204 5.95603 17.5333 6.23042C17.8462 6.50482 18.0707 6.86584 18.1784 7.26782C18.2861 7.6698 18.2722 8.0947 18.1384 8.48878C18.0046 8.88286 17.757 9.22842 17.4269 9.48177C17.0967 9.73511 16.6988 9.88486 16.2835 9.91208C15.8683 9.9393 15.4542 9.84276 15.0938 9.63468" stroke="#8198BD"/>
<path id="Ellipse 49" d="M10.6763 6.76034C10.4683 6.39993 10.158 6.10931 9.78473 5.92525C9.41149 5.74118 8.99204 5.67193 8.57944 5.72625C8.16683 5.78057 7.7796 5.95603 7.46671 6.23042C7.15382 6.50482 6.92933 6.86584 6.82162 7.26782C6.7139 7.6698 6.72781 8.0947 6.86159 8.48878C6.99536 8.88286 7.24298 9.22842 7.57315 9.48177C7.90332 9.73511 8.30119 9.88486 8.71647 9.91208C9.13174 9.9393 9.54576 9.84276 9.90617 9.63468" stroke="#8198BD"/>
<path id="Subtract" d="M20.1116 16.1034L19.626 16.2226L19.626 16.2226L20.1116 16.1034ZM13.6323 13.1104L13.2631 12.7733L12.6427 13.4528L13.5504 13.6036L13.6323 13.1104ZM17.8971 17.1876L17.4168 17.3265L17.5213 17.6876H17.8971V17.1876ZM16.1458 12.4792C17.2347 12.4792 17.9968 13.0176 18.552 13.7667C19.1176 14.5299 19.4454 15.4872 19.626 16.2226L20.5972 15.9842C20.403 15.1933 20.0353 14.0886 19.3554 13.1713C18.6651 12.2399 17.6317 11.4792 16.1458 11.4792V12.4792ZM14.0016 13.4475C14.526 12.8731 15.2126 12.4792 16.1458 12.4792V11.4792C14.8846 11.4792 13.9429 12.0287 13.2631 12.7733L14.0016 13.4475ZM13.5504 13.6036C15.9582 14.0038 16.9762 15.8034 17.4168 17.3265L18.3774 17.0486C17.8877 15.3559 16.6715 13.1086 13.7143 12.6172L13.5504 13.6036ZM19.2074 16.6876H17.8971V17.6876H19.2074V16.6876ZM19.626 16.2226C19.6794 16.4402 19.5192 16.6876 19.2074 16.6876V17.6876C20.0789 17.6876 20.8259 16.9157 20.5972 15.9842L19.626 16.2226Z" fill="#8198BD"/>
<path id="Subtract_2" d="M11.3675 13.1104L11.4495 13.6036L12.3572 13.4528L11.7368 12.7733L11.3675 13.1104ZM4.88823 16.1034L4.40266 15.9842L4.40266 15.9842L4.88823 16.1034ZM7.10271 17.1876V17.6876H7.47856L7.58301 17.3265L7.10271 17.1876ZM8.85407 12.4792C9.78728 12.4792 10.4738 12.8731 10.9983 13.4475L11.7368 12.7733C11.057 12.0287 10.1152 11.4792 8.85407 11.4792V12.4792ZM5.3738 16.2226C5.55439 15.4872 5.88218 14.5299 6.44782 13.7667C7.00304 13.0176 7.76515 12.4792 8.85407 12.4792V11.4792C7.3681 11.4792 6.33469 12.2399 5.64441 13.1713C4.96455 14.0886 4.59686 15.1933 4.40266 15.9842L5.3738 16.2226ZM5.79239 16.6876C5.48064 16.6876 5.32037 16.4402 5.3738 16.2226L4.40266 15.9842C4.1739 16.9157 4.9209 17.6876 5.79239 17.6876V16.6876ZM7.10271 16.6876H5.79239V17.6876H7.10271V16.6876ZM7.58301 17.3265C8.02368 15.8034 9.04167 14.0038 11.4495 13.6036L11.2855 12.6172C8.32833 13.1086 7.11214 15.3559 6.6224 17.0486L7.58301 17.3265Z" fill="#8198BD"/>
<path id="Rectangle 4160" d="M12.4999 13.0208C16.7824 13.0208 17.8638 16.5128 18.1368 18.2764C18.2213 18.8222 17.7814 19.2708 17.2291 19.2708H7.77075C7.21847 19.2708 6.77849 18.8222 6.863 18.2764C7.13607 16.5128 8.21746 13.0208 12.4999 13.0208Z" stroke="#344BFD" stroke-linecap="round"/>
</g>
</svg>
