<svg width="25" height="25" viewBox="0 0 25 25" fill="none" xmlns="http://www.w3.org/2000/svg">
<g id="CurrencyCircleDollar">
<path id="Vector" d="M12.5 2.34375C10.4913 2.34375 8.52768 2.9394 6.85749 4.05539C5.18731 5.17137 3.88556 6.75756 3.11685 8.61337C2.34815 10.4692 2.14702 12.5113 2.5389 14.4814C2.93079 16.4515 3.89807 18.2612 5.31845 19.6816C6.73883 21.1019 8.5485 22.0692 10.5186 22.4611C12.4887 22.853 14.5308 22.6519 16.3866 21.8832C18.2424 21.1144 19.8286 19.8127 20.9446 18.1425C22.0606 16.4723 22.6563 14.5087 22.6563 12.5C22.6534 9.80727 21.5825 7.22564 19.6784 5.32159C17.7744 3.41754 15.1927 2.34659 12.5 2.34375ZM12.5 21.0938C10.8003 21.0938 9.13881 20.5897 7.72557 19.6454C6.31234 18.7011 5.21086 17.359 4.56041 15.7887C3.90997 14.2184 3.73979 12.4905 4.07138 10.8234C4.40297 9.15642 5.22145 7.62516 6.42331 6.4233C7.62516 5.22144 9.15642 4.40297 10.8234 4.07138C12.4905 3.73978 14.2184 3.90997 15.7887 4.56041C17.359 5.21085 18.7012 6.31233 19.6454 7.72557C20.5897 9.1388 21.0938 10.8003 21.0938 12.5C21.0912 14.7784 20.1849 16.9628 18.5738 18.5738C16.9628 20.1849 14.7784 21.0912 12.5 21.0938ZM16.4063 14.4531C16.4063 15.1783 16.1182 15.8738 15.6054 16.3866C15.0926 16.8994 14.3971 17.1875 13.6719 17.1875H13.2813V17.9688C13.2813 18.176 13.1989 18.3747 13.0524 18.5212C12.9059 18.6677 12.7072 18.75 12.5 18.75C12.2928 18.75 12.0941 18.6677 11.9476 18.5212C11.8011 18.3747 11.7188 18.176 11.7188 17.9688V17.1875H10.1563C9.94905 17.1875 9.75034 17.1052 9.60383 16.9587C9.45731 16.8122 9.375 16.6135 9.375 16.4062C9.375 16.199 9.45731 16.0003 9.60383 15.8538C9.75034 15.7073 9.94905 15.625 10.1563 15.625H13.6719C13.9827 15.625 14.2808 15.5015 14.5005 15.2818C14.7203 15.062 14.8438 14.7639 14.8438 14.4531C14.8438 14.1423 14.7203 13.8443 14.5005 13.6245C14.2808 13.4047 13.9827 13.2812 13.6719 13.2812H11.3281C10.6029 13.2812 9.90743 12.9932 9.39463 12.4804C8.88184 11.9676 8.59375 11.2721 8.59375 10.5469C8.59375 9.82167 8.88184 9.12617 9.39463 8.61338C9.90743 8.10059 10.6029 7.8125 11.3281 7.8125H11.7188V7.03125C11.7188 6.82405 11.8011 6.62534 11.9476 6.47882C12.0941 6.33231 12.2928 6.25 12.5 6.25C12.7072 6.25 12.9059 6.33231 13.0524 6.47882C13.1989 6.62534 13.2813 6.82405 13.2813 7.03125V7.8125H14.8438C15.051 7.8125 15.2497 7.89481 15.3962 8.04132C15.5427 8.18784 15.625 8.38655 15.625 8.59375C15.625 8.80095 15.5427 8.99966 15.3962 9.14618C15.2497 9.29269 15.051 9.375 14.8438 9.375H11.3281C11.0173 9.375 10.7193 9.49846 10.4995 9.71823C10.2797 9.938 10.1563 10.2361 10.1563 10.5469C10.1563 10.8577 10.2797 11.1557 10.4995 11.3755C10.7193 11.5953 11.0173 11.7188 11.3281 11.7188H13.6719C14.3971 11.7188 15.0926 12.0068 15.6054 12.5196C16.1182 13.0324 16.4063 13.7279 16.4063 14.4531Z" fill="#AEAEAE"/>
</g>
</svg>
