<svg xmlns="http://www.w3.org/2000/svg" width="25" height="25" viewBox="0 0 25 25" fill="none">
  <circle cx="12.5" cy="8.33333" r="2.625" stroke="#AEAEAE" stroke-linecap="round"/>
  <path d="M14.3236 6.76041C14.5317 6.4 14.842 6.10939 15.2152 5.92533C15.5885 5.74126 16.0079 5.67201 16.4205 5.72633C16.8331 5.78065 17.2203 5.9561 17.5332 6.2305C17.8461 6.5049 18.0706 6.86591 18.1783 7.2679C18.286 7.66988 18.2721 8.09478 18.1384 8.48886C18.0046 8.88294 17.757 9.2285 17.4268 9.48184C17.0966 9.73519 16.6987 9.88494 16.2835 9.91216C15.8682 9.93937 15.4542 9.84284 15.0938 9.63476" stroke="#2A4157" stroke-opacity="0.24"/>
  <path d="M10.6764 6.76041C10.4683 6.4 10.158 6.10939 9.7848 5.92533C9.41155 5.74126 8.9921 5.67201 8.5795 5.72633C8.16689 5.78065 7.77966 5.9561 7.46677 6.2305C7.15388 6.5049 6.92939 6.86591 6.82168 7.2679C6.71397 7.66988 6.72788 8.09478 6.86165 8.48886C6.99542 8.88294 7.24305 9.2285 7.57321 9.48184C7.90338 9.73519 8.30125 9.88494 8.71653 9.91216C9.1318 9.93937 9.54582 9.84284 9.90623 9.63476" stroke="#2A4157" stroke-opacity="0.24"/>
  <path d="M20.1116 16.1033L19.6261 16.2226L20.1116 16.1033ZM13.6324 13.1103L13.2631 12.7732L12.6427 13.4527L13.5504 13.6036L13.6324 13.1103ZM17.8972 17.1875L17.4169 17.3265L17.5213 17.6875H17.8972V17.1875ZM16.1458 12.4792C17.2348 12.4792 17.9969 13.0175 18.5521 13.7666C19.1177 14.5298 19.4455 15.4872 19.6261 16.2226L20.5972 15.9841C20.403 15.1932 20.0353 14.0885 19.3555 13.1712C18.6652 12.2398 17.6318 11.4792 16.1458 11.4792V12.4792ZM14.0016 13.4475C14.5261 12.8731 15.2126 12.4792 16.1458 12.4792V11.4792C14.8847 11.4792 13.9429 12.0287 13.2631 12.7732L14.0016 13.4475ZM13.5504 13.6036C15.9582 14.0037 16.9762 15.8033 17.4169 17.3265L18.3775 17.0485C17.8878 15.3558 16.6716 13.1085 13.7144 12.6171L13.5504 13.6036ZM19.2075 16.6875H17.8972V17.6875H19.2075V16.6875ZM19.6261 16.2226C19.6795 16.4401 19.5192 16.6875 19.2075 16.6875V17.6875C20.079 17.6875 20.826 16.9156 20.5972 15.9841L19.6261 16.2226Z" fill="#2A4157" fill-opacity="0.24"/>
  <path d="M11.3676 13.1103L11.4496 13.6036L12.3573 13.4527L11.7369 12.7732L11.3676 13.1103ZM4.88835 16.1033L4.40278 15.9841H4.40278L4.88835 16.1033ZM7.10283 17.1875V17.6875H7.47868L7.58313 17.3265L7.10283 17.1875ZM8.85419 12.4792C9.78741 12.4792 10.4739 12.8731 10.9984 13.4475L11.7369 12.7732C11.0571 12.0287 10.1153 11.4792 8.85419 11.4792V12.4792ZM5.37392 16.2226C5.55452 15.4872 5.8823 14.5298 6.44794 13.7666C7.00316 13.0175 7.76527 12.4792 8.85419 12.4792V11.4792C7.36822 11.4792 6.33481 12.2398 5.64453 13.1712C4.96467 14.0885 4.59699 15.1932 4.40278 15.9841L5.37392 16.2226ZM5.79251 16.6875C5.48076 16.6875 5.3205 16.4401 5.37392 16.2226L4.40278 15.9841C4.17402 16.9156 4.92103 17.6875 5.79251 17.6875V16.6875ZM7.10283 16.6875H5.79251V17.6875H7.10283V16.6875ZM7.58313 17.3265C8.0238 15.8033 9.0418 14.0037 11.4496 13.6036L11.2857 12.6171C8.32845 13.1085 7.11226 15.3558 6.62253 17.0485L7.58313 17.3265Z" fill="#2A4157" fill-opacity="0.24"/>
  <path d="M12.5 13.0208C16.7824 13.0208 17.8638 16.5129 18.1369 18.2765C18.2214 18.8223 17.7814 19.2708 17.2291 19.2708H7.77081C7.21853 19.2708 6.77856 18.8223 6.86306 18.2765C7.13613 16.5129 8.21752 13.0208 12.5 13.0208Z" stroke="#AEAEAE" stroke-linecap="round"/>
</svg>